<svg xmlns="http://www.w3.org/2000/svg" viewBox="0 0 500 500">
  <defs>
    <linearGradient id="bg1" x1="0%" y1="0%" x2="100%" y2="100%">
      <stop offset="0%" style="stop-color:#3d3d3d"/>
      <stop offset="100%" style="stop-color:#4a4a4a"/>
    </linearGradient>
    <linearGradient id="orange1" x1="0%" y1="0%" x2="100%" y2="100%">
      <stop offset="0%" style="stop-color:#F7931E"/>
      <stop offset="100%" style="stop-color:#FF6B00"/>
    </linearGradient>
    <filter id="glow">
      <feGaussianBlur stdDeviation="3" result="coloredBlur"/>
      <feMerge>
        <feMergeNode in="coloredBlur"/>
        <feMergeNode in="SourceGraphic"/>
      </feMerge>
    </filter>
  </defs>

  <!-- Background -->
  <rect width="500" height="500" fill="url(#bg1)"/>

  <!-- Decorative triangles (AnIT inspired) -->
    <polygon points="262,88 313,139 237,139"
             fill="url(#orange1)" opacity="0.61"
             transform="rotate(179 262 113)"/>
    <polygon points="93,117 123,147 78,147"
             fill="url(#orange1)" opacity="0.80"
             transform="rotate(247 93 132)"/>
    <polygon points="160,137 212,189 134,189"
             fill="url(#orange1)" opacity="0.75"
             transform="rotate(116 160 163)"/>
    <polygon points="305,20 356,71 280,71"
             fill="url(#orange1)" opacity="0.65"
             transform="rotate(225 305 45)"/>
    <polygon points="208,61 248,101 188,101"
             fill="url(#orange1)" opacity="0.76"
             transform="rotate(30 208 81)"/>

    <!-- Main Nexus Symbol - Geometric N -->
    <g transform="translate(150, 120)" filter="url(#glow)">
      <polygon points="100,0 200,50 200,150 100,200 0,150 0,50"
               fill="none" stroke="#F7931E" stroke-width="4"/>
      <path d="M 60,160 L 60,40 L 80,40 L 140,130 L 140,40 L 160,40 L 160,160 L 140,160 L 80,70 L 80,160 Z"
            fill="#FFFFFF"/>
    </g>

  <!-- Swoosh element (AnIT inspired) -->
    <path d="M 50,336 Q 150,291 250,336 T 450,336"
          fill="none" stroke="#FFFFFF" stroke-width="8" opacity="0.9"/>
    <path d="M 50,356 Q 150,311 250,356 T 450,356"
          fill="none" stroke="url(#orange1)" stroke-width="4" opacity="0.7"/>

  <!-- Bottom accent triangles -->
    <polygon points="436,390 458,434 414,434"
             fill="url(#orange1)" opacity="0.66"/>
    <polygon points="357,402 381,450 333,450"
             fill="url(#orange1)" opacity="0.76"/>
    <polygon points="460,414 489,472 431,472"
             fill="url(#orange1)" opacity="0.58"/>

  <!-- Token ID badge -->
  <rect x="380" y="20" width="100" height="40" rx="20" fill="url(#orange1)"/>
  <text x="430" y="48" font-family="Arial, sans-serif" font-size="20" font-weight="bold" fill="#FFFFFF" text-anchor="middle">#12</text>

  <!-- Nexus text -->
  <text x="250" y="460" font-family="Arial, sans-serif" font-size="36" font-weight="bold" fill="#FFFFFF" text-anchor="middle">NEXUS</text>
  <text x="250" y="485" font-family="Arial, sans-serif" font-size="14" fill="#F7931E" text-anchor="middle">GENESIS COLLECTION</text>
</svg>