<svg xmlns="http://www.w3.org/2000/svg" viewBox="0 0 500 500">
  <defs>
    <linearGradient id="bg1" x1="0%" y1="0%" x2="100%" y2="100%">
      <stop offset="0%" style="stop-color:#3d3d3d"/>
      <stop offset="100%" style="stop-color:#4a4a4a"/>
    </linearGradient>
    <linearGradient id="orange1" x1="0%" y1="0%" x2="100%" y2="100%">
      <stop offset="0%" style="stop-color:#F7931E"/>
      <stop offset="100%" style="stop-color:#FF6B00"/>
    </linearGradient>
    <filter id="glow">
      <feGaussianBlur stdDeviation="3" result="coloredBlur"/>
      <feMerge>
        <feMergeNode in="coloredBlur"/>
        <feMergeNode in="SourceGraphic"/>
      </feMerge>
    </filter>
  </defs>

  <!-- Background -->
  <rect width="500" height="500" fill="url(#bg1)"/>

  <!-- Decorative triangles (AnIT inspired) -->
    <polygon points="152,94 203,145 127,145"
             fill="url(#orange1)" opacity="0.76"
             transform="rotate(95 152 119)"/>
    <polygon points="353,79 404,130 328,130"
             fill="url(#orange1)" opacity="0.46"
             transform="rotate(115 353 104)"/>
    <polygon points="348,67 382,101 331,101"
             fill="url(#orange1)" opacity="0.43"
             transform="rotate(109 348 84)"/>
    <polygon points="401,95 431,125 386,125"
             fill="url(#orange1)" opacity="0.57"
             transform="rotate(350 401 110)"/>
    <polygon points="331,23 369,61 312,61"
             fill="url(#orange1)" opacity="0.73"
             transform="rotate(43 331 42)"/>

    <!-- Main Nexus Symbol - Hexagon -->
    <g transform="translate(150, 120)" filter="url(#glow)">
      <polygon points="100,0 200,50 200,150 100,200 0,150 0,50"
               fill="none" stroke="#F7931E" stroke-width="6"/>
      <polygon points="100,30 170,65 170,135 100,170 30,135 30,65"
               fill="url(#orange1)" opacity="0.3"/>
      <text x="100" y="115" font-family="Arial" font-size="60" font-weight="bold"
            fill="#FFFFFF" text-anchor="middle">N</text>
    </g>

  <!-- Swoosh element (AnIT inspired) -->
    <path d="M 50,357 Q 150,301 250,357 T 450,357"
          fill="none" stroke="#FFFFFF" stroke-width="6" opacity="0.9"/>
    <path d="M 50,377 Q 150,321 250,377 T 450,377"
          fill="none" stroke="url(#orange1)" stroke-width="6" opacity="0.7"/>

  <!-- Bottom accent triangles -->
    <polygon points="475,396 506,458 444,458"
             fill="url(#orange1)" opacity="0.83"/>
    <polygon points="397,416 426,474 368,474"
             fill="url(#orange1)" opacity="0.51"/>
    <polygon points="364,404 387,451 341,451"
             fill="url(#orange1)" opacity="0.86"/>

  <!-- Token ID badge -->
  <rect x="380" y="20" width="100" height="40" rx="20" fill="url(#orange1)"/>
  <text x="430" y="48" font-family="Arial, sans-serif" font-size="20" font-weight="bold" fill="#FFFFFF" text-anchor="middle">#13</text>

  <!-- Nexus text -->
  <text x="250" y="460" font-family="Arial, sans-serif" font-size="36" font-weight="bold" fill="#FFFFFF" text-anchor="middle">NEXUS</text>
  <text x="250" y="485" font-family="Arial, sans-serif" font-size="14" fill="#F7931E" text-anchor="middle">GENESIS COLLECTION</text>
</svg>