<svg xmlns="http://www.w3.org/2000/svg" viewBox="0 0 500 500">
  <defs>
    <linearGradient id="bg1" x1="0%" y1="0%" x2="100%" y2="100%">
      <stop offset="0%" style="stop-color:#3d3d3d"/>
      <stop offset="100%" style="stop-color:#4a4a4a"/>
    </linearGradient>
    <linearGradient id="orange1" x1="0%" y1="0%" x2="100%" y2="100%">
      <stop offset="0%" style="stop-color:#F7931E"/>
      <stop offset="100%" style="stop-color:#FF6B00"/>
    </linearGradient>
    <filter id="glow">
      <feGaussianBlur stdDeviation="3" result="coloredBlur"/>
      <feMerge>
        <feMergeNode in="coloredBlur"/>
        <feMergeNode in="SourceGraphic"/>
      </feMerge>
    </filter>
  </defs>

  <!-- Background -->
  <rect width="500" height="500" fill="url(#bg1)"/>

  <!-- Decorative triangles (AnIT inspired) -->
    <polygon points="205,140 250,185 183,185"
             fill="url(#orange1)" opacity="0.51"
             transform="rotate(116 205 162)"/>
    <polygon points="248,21 291,64 227,64"
             fill="url(#orange1)" opacity="0.74"
             transform="rotate(132 248 42)"/>
    <polygon points="141,76 171,106 126,106"
             fill="url(#orange1)" opacity="0.52"
             transform="rotate(171 141 91)"/>
    <polygon points="361,56 421,116 331,116"
             fill="url(#orange1)" opacity="0.70"
             transform="rotate(158 361 86)"/>
    <polygon points="31,76 91,136 1,136"
             fill="url(#orange1)" opacity="0.64"
             transform="rotate(10 31 106)"/>

    <!-- Main Nexus Symbol - Geometric N -->
    <g transform="translate(150, 120)" filter="url(#glow)">
      <polygon points="100,0 200,50 200,150 100,200 0,150 0,50"
               fill="none" stroke="#F7931E" stroke-width="4"/>
      <path d="M 60,160 L 60,40 L 80,40 L 140,130 L 140,40 L 160,40 L 160,160 L 140,160 L 80,70 L 80,160 Z"
            fill="#FFFFFF"/>
    </g>

  <!-- Swoosh element (AnIT inspired) -->
    <path d="M 50,358 Q 150,300 250,358 T 450,358"
          fill="none" stroke="#FFFFFF" stroke-width="10" opacity="0.9"/>
    <path d="M 50,378 Q 150,320 250,378 T 450,378"
          fill="none" stroke="url(#orange1)" stroke-width="5" opacity="0.7"/>

  <!-- Bottom accent triangles -->
    <polygon points="443,404 471,461 415,461"
             fill="url(#orange1)" opacity="0.64"/>
    <polygon points="393,384 418,435 368,435"
             fill="url(#orange1)" opacity="0.85"/>
    <polygon points="358,409 386,465 330,465"
             fill="url(#orange1)" opacity="0.86"/>

  <!-- Token ID badge -->
  <rect x="380" y="20" width="100" height="40" rx="20" fill="url(#orange1)"/>
  <text x="430" y="48" font-family="Arial, sans-serif" font-size="20" font-weight="bold" fill="#FFFFFF" text-anchor="middle">#16</text>

  <!-- Nexus text -->
  <text x="250" y="460" font-family="Arial, sans-serif" font-size="36" font-weight="bold" fill="#FFFFFF" text-anchor="middle">NEXUS</text>
  <text x="250" y="485" font-family="Arial, sans-serif" font-size="14" fill="#F7931E" text-anchor="middle">GENESIS COLLECTION</text>
</svg>