<svg xmlns="http://www.w3.org/2000/svg" viewBox="0 0 500 500">
  <defs>
    <linearGradient id="bg1" x1="0%" y1="0%" x2="100%" y2="100%">
      <stop offset="0%" style="stop-color:#3d3d3d"/>
      <stop offset="100%" style="stop-color:#4a4a4a"/>
    </linearGradient>
    <linearGradient id="orange1" x1="0%" y1="0%" x2="100%" y2="100%">
      <stop offset="0%" style="stop-color:#F7931E"/>
      <stop offset="100%" style="stop-color:#FF6B00"/>
    </linearGradient>
    <filter id="glow">
      <feGaussianBlur stdDeviation="3" result="coloredBlur"/>
      <feMerge>
        <feMergeNode in="coloredBlur"/>
        <feMergeNode in="SourceGraphic"/>
      </feMerge>
    </filter>
  </defs>

  <!-- Background -->
  <rect width="500" height="500" fill="url(#bg1)"/>

  <!-- Decorative triangles (AnIT inspired) -->
    <polygon points="112,51 163,102 87,102"
             fill="url(#orange1)" opacity="0.58"
             transform="rotate(122 112 76)"/>
    <polygon points="121,145 171,195 96,195"
             fill="url(#orange1)" opacity="0.60"
             transform="rotate(245 121 170)"/>
    <polygon points="171,137 229,195 142,195"
             fill="url(#orange1)" opacity="0.51"
             transform="rotate(129 171 166)"/>
    <polygon points="374,50 414,90 354,90"
             fill="url(#orange1)" opacity="0.61"
             transform="rotate(89 374 70)"/>
    <polygon points="435,80 470,115 418,115"
             fill="url(#orange1)" opacity="0.49"
             transform="rotate(187 435 97)"/>

    <!-- Main Nexus Symbol - Diamond -->
    <g transform="translate(150, 100)" filter="url(#glow)">
      <polygon points="100,0 200,100 100,200 0,100"
               fill="none" stroke="#F7931E" stroke-width="5"/>
      <polygon points="100,30 170,100 100,170 30,100"
               fill="url(#orange1)" opacity="0.4"/>
      <circle cx="100" cy="100" r="40" fill="#FFFFFF"/>
      <text x="100" y="115" font-family="Arial" font-size="50" font-weight="bold"
            fill="#4a4a4a" text-anchor="middle">N</text>
    </g>

  <!-- Swoosh element (AnIT inspired) -->
    <path d="M 50,364 Q 150,330 250,364 T 450,364"
          fill="none" stroke="#FFFFFF" stroke-width="6" opacity="0.9"/>
    <path d="M 50,384 Q 150,350 250,384 T 450,384"
          fill="none" stroke="url(#orange1)" stroke-width="6" opacity="0.7"/>

  <!-- Bottom accent triangles -->
    <polygon points="450,405 481,467 419,467"
             fill="url(#orange1)" opacity="0.54"/>
    <polygon points="406,417 431,467 381,467"
             fill="url(#orange1)" opacity="0.59"/>
    <polygon points="397,413 428,476 366,476"
             fill="url(#orange1)" opacity="0.80"/>

  <!-- Token ID badge -->
  <rect x="380" y="20" width="100" height="40" rx="20" fill="url(#orange1)"/>
  <text x="430" y="48" font-family="Arial, sans-serif" font-size="20" font-weight="bold" fill="#FFFFFF" text-anchor="middle">#18</text>

  <!-- Nexus text -->
  <text x="250" y="460" font-family="Arial, sans-serif" font-size="36" font-weight="bold" fill="#FFFFFF" text-anchor="middle">NEXUS</text>
  <text x="250" y="485" font-family="Arial, sans-serif" font-size="14" fill="#F7931E" text-anchor="middle">GENESIS COLLECTION</text>
</svg>