<svg xmlns="http://www.w3.org/2000/svg" viewBox="0 0 500 500">
  <defs>
    <linearGradient id="bg1" x1="0%" y1="0%" x2="100%" y2="100%">
      <stop offset="0%" style="stop-color:#3d3d3d"/>
      <stop offset="100%" style="stop-color:#4a4a4a"/>
    </linearGradient>
    <linearGradient id="orange1" x1="0%" y1="0%" x2="100%" y2="100%">
      <stop offset="0%" style="stop-color:#F7931E"/>
      <stop offset="100%" style="stop-color:#FF6B00"/>
    </linearGradient>
    <filter id="glow">
      <feGaussianBlur stdDeviation="3" result="coloredBlur"/>
      <feMerge>
        <feMergeNode in="coloredBlur"/>
        <feMergeNode in="SourceGraphic"/>
      </feMerge>
    </filter>
  </defs>

  <!-- Background -->
  <rect width="500" height="500" fill="url(#bg1)"/>

  <!-- Decorative triangles (AnIT inspired) -->
    <polygon points="366,31 421,86 339,86"
             fill="url(#orange1)" opacity="0.76"
             transform="rotate(61 366 58)"/>
    <polygon points="281,71 323,113 260,113"
             fill="url(#orange1)" opacity="0.54"
             transform="rotate(270 281 92)"/>
    <polygon points="168,57 217,106 144,106"
             fill="url(#orange1)" opacity="0.50"
             transform="rotate(133 168 81)"/>
    <polygon points="230,103 290,163 200,163"
             fill="url(#orange1)" opacity="0.51"
             transform="rotate(55 230 133)"/>
    <polygon points="415,103 473,161 386,161"
             fill="url(#orange1)" opacity="0.52"
             transform="rotate(291 415 132)"/>

    <!-- Main Nexus Symbol - Star -->
    <g transform="translate(150, 100)" filter="url(#glow)">
      <polygon points="100,0 120,70 200,70 140,115 160,190 100,145 40,190 60,115 0,70 80,70"
               fill="none" stroke="#F7931E" stroke-width="4"/>
      <polygon points="100,30 115,75 165,75 125,105 140,155 100,125 60,155 75,105 35,75 85,75"
               fill="url(#orange1)" opacity="0.5"/>
      <circle cx="100" cy="100" r="30" fill="#FFFFFF"/>
    </g>

  <!-- Swoosh element (AnIT inspired) -->
    <path d="M 50,339 Q 150,284 250,339 T 450,339"
          fill="none" stroke="#FFFFFF" stroke-width="7" opacity="0.9"/>
    <path d="M 50,359 Q 150,304 250,359 T 450,359"
          fill="none" stroke="url(#orange1)" stroke-width="6" opacity="0.7"/>

  <!-- Bottom accent triangles -->
    <polygon points="358,401 381,447 335,447"
             fill="url(#orange1)" opacity="0.54"/>
    <polygon points="411,408 440,467 382,467"
             fill="url(#orange1)" opacity="0.89"/>
    <polygon points="408,398 440,463 376,463"
             fill="url(#orange1)" opacity="0.65"/>

  <!-- Token ID badge -->
  <rect x="380" y="20" width="100" height="40" rx="20" fill="url(#orange1)"/>
  <text x="430" y="48" font-family="Arial, sans-serif" font-size="20" font-weight="bold" fill="#FFFFFF" text-anchor="middle">#19</text>

  <!-- Nexus text -->
  <text x="250" y="460" font-family="Arial, sans-serif" font-size="36" font-weight="bold" fill="#FFFFFF" text-anchor="middle">NEXUS</text>
  <text x="250" y="485" font-family="Arial, sans-serif" font-size="14" fill="#F7931E" text-anchor="middle">GENESIS COLLECTION</text>
</svg>