<svg xmlns="http://www.w3.org/2000/svg" viewBox="0 0 500 500">
  <defs>
    <linearGradient id="bg1" x1="0%" y1="0%" x2="100%" y2="100%">
      <stop offset="0%" style="stop-color:#3d3d3d"/>
      <stop offset="100%" style="stop-color:#4a4a4a"/>
    </linearGradient>
    <linearGradient id="orange1" x1="0%" y1="0%" x2="100%" y2="100%">
      <stop offset="0%" style="stop-color:#F7931E"/>
      <stop offset="100%" style="stop-color:#FF6B00"/>
    </linearGradient>
    <filter id="glow">
      <feGaussianBlur stdDeviation="3" result="coloredBlur"/>
      <feMerge>
        <feMergeNode in="coloredBlur"/>
        <feMergeNode in="SourceGraphic"/>
      </feMerge>
    </filter>
  </defs>

  <!-- Background -->
  <rect width="500" height="500" fill="url(#bg1)"/>

  <!-- Decorative triangles (AnIT inspired) -->
    <polygon points="141,53 182,94 121,94"
             fill="url(#orange1)" opacity="0.77"
             transform="rotate(242 141 73)"/>
    <polygon points="340,36 389,85 316,85"
             fill="url(#orange1)" opacity="0.41"
             transform="rotate(240 340 60)"/>
    <polygon points="152,79 188,115 134,115"
             fill="url(#orange1)" opacity="0.80"
             transform="rotate(240 152 97)"/>
    <polygon points="296,141 338,183 275,183"
             fill="url(#orange1)" opacity="0.66"
             transform="rotate(77 296 162)"/>
    <polygon points="138,58 195,115 110,115"
             fill="url(#orange1)" opacity="0.77"
             transform="rotate(199 138 86)"/>

    <!-- Main Nexus Symbol - Star -->
    <g transform="translate(150, 100)" filter="url(#glow)">
      <polygon points="100,0 120,70 200,70 140,115 160,190 100,145 40,190 60,115 0,70 80,70"
               fill="none" stroke="#F7931E" stroke-width="4"/>
      <polygon points="100,30 115,75 165,75 125,105 140,155 100,125 60,155 75,105 35,75 85,75"
               fill="url(#orange1)" opacity="0.5"/>
      <circle cx="100" cy="100" r="30" fill="#FFFFFF"/>
    </g>

  <!-- Swoosh element (AnIT inspired) -->
    <path d="M 50,337 Q 150,285 250,337 T 450,337"
          fill="none" stroke="#FFFFFF" stroke-width="10" opacity="0.9"/>
    <path d="M 50,357 Q 150,305 250,357 T 450,357"
          fill="none" stroke="url(#orange1)" stroke-width="4" opacity="0.7"/>

  <!-- Bottom accent triangles -->
    <polygon points="477,415 502,466 452,466"
             fill="url(#orange1)" opacity="0.59"/>
    <polygon points="468,408 496,465 440,465"
             fill="url(#orange1)" opacity="0.68"/>
    <polygon points="356,401 377,443 335,443"
             fill="url(#orange1)" opacity="0.69"/>

  <!-- Token ID badge -->
  <rect x="380" y="20" width="100" height="40" rx="20" fill="url(#orange1)"/>
  <text x="430" y="48" font-family="Arial, sans-serif" font-size="20" font-weight="bold" fill="#FFFFFF" text-anchor="middle">#3</text>

  <!-- Nexus text -->
  <text x="250" y="460" font-family="Arial, sans-serif" font-size="36" font-weight="bold" fill="#FFFFFF" text-anchor="middle">NEXUS</text>
  <text x="250" y="485" font-family="Arial, sans-serif" font-size="14" fill="#F7931E" text-anchor="middle">GENESIS COLLECTION</text>
</svg>