<svg xmlns="http://www.w3.org/2000/svg" viewBox="0 0 500 500">
  <defs>
    <linearGradient id="bg1" x1="0%" y1="0%" x2="100%" y2="100%">
      <stop offset="0%" style="stop-color:#3d3d3d"/>
      <stop offset="100%" style="stop-color:#4a4a4a"/>
    </linearGradient>
    <linearGradient id="orange1" x1="0%" y1="0%" x2="100%" y2="100%">
      <stop offset="0%" style="stop-color:#F7931E"/>
      <stop offset="100%" style="stop-color:#FF6B00"/>
    </linearGradient>
    <filter id="glow">
      <feGaussianBlur stdDeviation="3" result="coloredBlur"/>
      <feMerge>
        <feMergeNode in="coloredBlur"/>
        <feMergeNode in="SourceGraphic"/>
      </feMerge>
    </filter>
  </defs>

  <!-- Background -->
  <rect width="500" height="500" fill="url(#bg1)"/>

  <!-- Decorative triangles (AnIT inspired) -->
    <polygon points="185,58 227,100 164,100"
             fill="url(#orange1)" opacity="0.66"
             transform="rotate(37 185 79)"/>
    <polygon points="440,44 481,85 420,85"
             fill="url(#orange1)" opacity="0.63"
             transform="rotate(259 440 64)"/>
    <polygon points="129,29 161,61 113,61"
             fill="url(#orange1)" opacity="0.57"
             transform="rotate(35 129 45)"/>
    <polygon points="143,43 190,90 120,90"
             fill="url(#orange1)" opacity="0.57"
             transform="rotate(289 143 66)"/>
    <polygon points="83,77 133,127 58,127"
             fill="url(#orange1)" opacity="0.65"
             transform="rotate(31 83 102)"/>

    <!-- Main Nexus Symbol - Star -->
    <g transform="translate(150, 100)" filter="url(#glow)">
      <polygon points="100,0 120,70 200,70 140,115 160,190 100,145 40,190 60,115 0,70 80,70"
               fill="none" stroke="#F7931E" stroke-width="4"/>
      <polygon points="100,30 115,75 165,75 125,105 140,155 100,125 60,155 75,105 35,75 85,75"
               fill="url(#orange1)" opacity="0.5"/>
      <circle cx="100" cy="100" r="30" fill="#FFFFFF"/>
    </g>

  <!-- Swoosh element (AnIT inspired) -->
    <path d="M 50,342 Q 150,288 250,342 T 450,342"
          fill="none" stroke="#FFFFFF" stroke-width="6" opacity="0.9"/>
    <path d="M 50,362 Q 150,308 250,362 T 450,362"
          fill="none" stroke="url(#orange1)" stroke-width="6" opacity="0.7"/>

  <!-- Bottom accent triangles -->
    <polygon points="358,418 380,463 336,463"
             fill="url(#orange1)" opacity="0.85"/>
    <polygon points="395,394 423,450 367,450"
             fill="url(#orange1)" opacity="0.89"/>
    <polygon points="400,415 420,456 380,456"
             fill="url(#orange1)" opacity="0.68"/>

  <!-- Token ID badge -->
  <rect x="380" y="20" width="100" height="40" rx="20" fill="url(#orange1)"/>
  <text x="430" y="48" font-family="Arial, sans-serif" font-size="20" font-weight="bold" fill="#FFFFFF" text-anchor="middle">#7</text>

  <!-- Nexus text -->
  <text x="250" y="460" font-family="Arial, sans-serif" font-size="36" font-weight="bold" fill="#FFFFFF" text-anchor="middle">NEXUS</text>
  <text x="250" y="485" font-family="Arial, sans-serif" font-size="14" fill="#F7931E" text-anchor="middle">GENESIS COLLECTION</text>
</svg>