<svg xmlns="http://www.w3.org/2000/svg" viewBox="0 0 500 500">
  <defs>
    <linearGradient id="bg1" x1="0%" y1="0%" x2="100%" y2="100%">
      <stop offset="0%" style="stop-color:#3d3d3d"/>
      <stop offset="100%" style="stop-color:#4a4a4a"/>
    </linearGradient>
    <linearGradient id="orange1" x1="0%" y1="0%" x2="100%" y2="100%">
      <stop offset="0%" style="stop-color:#F7931E"/>
      <stop offset="100%" style="stop-color:#FF6B00"/>
    </linearGradient>
    <filter id="glow">
      <feGaussianBlur stdDeviation="3" result="coloredBlur"/>
      <feMerge>
        <feMergeNode in="coloredBlur"/>
        <feMergeNode in="SourceGraphic"/>
      </feMerge>
    </filter>
  </defs>

  <!-- Background -->
  <rect width="500" height="500" fill="url(#bg1)"/>

  <!-- Decorative triangles (AnIT inspired) -->
    <polygon points="257,115 295,153 238,153"
             fill="url(#orange1)" opacity="0.46"
             transform="rotate(346 257 134)"/>
    <polygon points="23,106 69,152 0,152"
             fill="url(#orange1)" opacity="0.59"
             transform="rotate(309 23 129)"/>
    <polygon points="61,105 108,152 38,152"
             fill="url(#orange1)" opacity="0.77"
             transform="rotate(358 61 128)"/>
    <polygon points="40,117 75,152 23,152"
             fill="url(#orange1)" opacity="0.68"
             transform="rotate(231 40 134)"/>
    <polygon points="391,128 426,163 374,163"
             fill="url(#orange1)" opacity="0.47"
             transform="rotate(26 391 145)"/>

    <!-- Main Nexus Symbol - Hexagon -->
    <g transform="translate(150, 120)" filter="url(#glow)">
      <polygon points="100,0 200,50 200,150 100,200 0,150 0,50"
               fill="none" stroke="#F7931E" stroke-width="6"/>
      <polygon points="100,30 170,65 170,135 100,170 30,135 30,65"
               fill="url(#orange1)" opacity="0.3"/>
      <text x="100" y="115" font-family="Arial" font-size="60" font-weight="bold"
            fill="#FFFFFF" text-anchor="middle">N</text>
    </g>

  <!-- Swoosh element (AnIT inspired) -->
    <path d="M 50,347 Q 150,297 250,347 T 450,347"
          fill="none" stroke="#FFFFFF" stroke-width="10" opacity="0.9"/>
    <path d="M 50,367 Q 150,317 250,367 T 450,367"
          fill="none" stroke="url(#orange1)" stroke-width="4" opacity="0.7"/>

  <!-- Bottom accent triangles -->
    <polygon points="396,380 423,435 369,435"
             fill="url(#orange1)" opacity="0.90"/>
    <polygon points="472,390 500,446 444,446"
             fill="url(#orange1)" opacity="0.81"/>
    <polygon points="410,393 434,441 386,441"
             fill="url(#orange1)" opacity="0.54"/>

  <!-- Token ID badge -->
  <rect x="380" y="20" width="100" height="40" rx="20" fill="url(#orange1)"/>
  <text x="430" y="48" font-family="Arial, sans-serif" font-size="20" font-weight="bold" fill="#FFFFFF" text-anchor="middle">#9</text>

  <!-- Nexus text -->
  <text x="250" y="460" font-family="Arial, sans-serif" font-size="36" font-weight="bold" fill="#FFFFFF" text-anchor="middle">NEXUS</text>
  <text x="250" y="485" font-family="Arial, sans-serif" font-size="14" fill="#F7931E" text-anchor="middle">GENESIS COLLECTION</text>
</svg>